<?xml version="1.0" encoding="UTF-8"?>
<svg width="166px" height="51px" viewBox="0 0 166 51" version="1.1" xmlns="http://www.w3.org/2000/svg" xmlns:xlink="http://www.w3.org/1999/xlink">
    <!-- Generator: Sketch 44.1 (41455) - http://www.bohemiancoding.com/sketch -->
    <title>Control Logo - Dark</title>
    <desc>Created with Sketch.</desc>
    <defs></defs>
    <g id="Control-Style-Guide" stroke="none" stroke-width="1" fill="none" fill-rule="evenodd">
        <g id="Style-Guide" transform="translate(-747.000000, -1104.000000)">
            <g id="Logo" transform="translate(40.000000, 1024.000000)">
                <g id="Full-Logo" transform="translate(260.000000, 0.000000)">
                    <g id="Light-Background" transform="translate(360.000000, 0.000000)">
                        <g id="Control-Logo---Dark" transform="translate(87.000000, 80.000000)">
                            <path d="M165.38536,7.80980229 L165.38536,34.8877836 L159.860949,34.8877836 L159.860949,7.80980229 L165.38536,7.80980229 Z M147.637858,15.8629344 C149.052321,15.8629344 150.333344,16.0791259 151.480926,16.5385328 C152.628509,16.9979396 153.615964,17.6194901 154.443291,18.457232 C155.270618,19.294974 155.91113,20.2948595 156.364825,21.4839126 C156.818521,22.6729657 157.058712,23.9971384 157.058712,25.4834547 C157.058712,26.9697711 156.818521,28.3209677 156.364825,29.5370447 C155.91113,30.7260978 155.270618,31.7530073 154.443291,32.5907492 C153.615964,33.4284912 152.628509,34.0770656 151.480926,34.5364724 C150.333344,34.9958793 149.052321,35.2120708 147.637858,35.2120708 C146.223396,35.2120708 144.942373,34.9958793 143.768103,34.5364724 C142.62052,34.0770656 141.606377,33.4284912 140.77905,32.5907492 C139.951723,31.7530073 139.284523,30.7260978 138.830828,29.5370447 C138.377132,28.3479917 138.136941,26.996795 138.136941,25.4834547 C138.136941,23.9971384 138.377132,22.6729657 138.830828,21.4839126 C139.284523,20.2948595 139.925035,19.294974 140.77905,18.457232 C141.633065,17.6194901 142.62052,16.9979396 143.768103,16.5385328 C144.915685,16.0791259 146.196708,15.8629344 147.637858,15.8629344 Z M147.637858,31.0233611 C148.918881,31.0233611 149.85296,30.5639542 150.440095,29.6451405 C151.053919,28.7263267 151.347487,27.3481061 151.347487,25.4834547 C151.347487,23.6188033 151.053919,22.2405827 150.440095,21.3487929 C149.826272,20.4570031 148.892193,19.9975963 147.637858,19.9975963 C146.330148,19.9975963 145.369381,20.4570031 144.755558,21.3487929 C144.141734,22.2405827 143.848167,23.6458273 143.848167,25.4834547 C143.848167,27.3481061 144.141734,28.7263267 144.755558,29.6451405 C145.369381,30.5639542 146.30346,31.0233611 147.637858,31.0233611 Z M130.957876,19.0247347 C131.518324,18.0248491 132.185523,17.2141311 132.932786,16.6466285 C133.680049,16.0791259 134.534064,15.7818626 135.494831,15.7818626 C136.322159,15.7818626 137.016046,15.9710302 137.523117,16.3763892 L137.176174,20.511051 C137.122798,20.7812903 137.016046,20.9704579 136.882606,21.0515297 C136.749166,21.1596254 136.56235,21.1866493 136.322159,21.1866493 C136.215407,21.1866493 136.108655,21.1866493 135.948527,21.1596254 C135.788399,21.1596254 135.628271,21.1326015 135.468143,21.1055775 C135.308016,21.0785536 135.1212,21.0785536 134.961072,21.0515297 C134.800944,21.0245057 134.640816,21.0245057 134.480689,21.0245057 C133.680049,21.0245057 133.01285,21.2406972 132.532467,21.6730801 C132.052083,22.1054631 131.651764,22.6999896 131.30482,23.4836837 L131.30482,34.8877836 L125.78041,34.8877836 L125.78041,16.1331738 L129.06303,16.1331738 C129.32991,16.1331738 129.570102,16.1601977 129.756918,16.2142456 C129.943733,16.2682934 130.103861,16.3493652 130.210613,16.430437 C130.344053,16.5385328 130.424117,16.6736524 130.504181,16.835796 C130.557557,16.9979396 130.637621,17.2141311 130.664309,17.4573465 L130.957876,19.0247347 Z M118.681409,35.1850468 C117.800706,35.1850468 117.026755,35.0499272 116.359556,34.8067118 C115.692357,34.5634964 115.131909,34.1851613 114.651526,33.6987305 C114.19783,33.2122997 113.850887,32.6447971 113.610695,31.9691988 C113.370503,31.2936004 113.263751,30.5369303 113.263751,29.6991883 L113.263751,20.0246202 L111.689161,20.0246202 C111.395593,20.0246202 111.155401,19.9435484 110.968586,19.7543809 C110.755082,19.5652133 110.675018,19.294974 110.675018,18.9436629 L110.675018,16.7547242 L113.610695,16.1872216 L114.704902,11.6201769 C114.838341,11.0526743 115.265349,10.755411 115.932548,10.755411 L118.814849,10.755411 L118.814849,16.2412695 L123.40518,16.2412695 L123.40518,20.0786681 L118.814849,20.0786681 L118.814849,29.4019251 C118.814849,29.834308 118.921601,30.1856191 119.135105,30.4828824 C119.348609,30.7531217 119.642176,30.9152653 120.042496,30.9152653 C120.256,30.9152653 120.416128,30.8882414 120.549567,30.8612175 C120.683007,30.8071696 120.816447,30.7801457 120.896511,30.7260978 C121.003263,30.6720499 121.083327,30.6180021 121.190079,30.5909781 C121.270143,30.5369303 121.376895,30.5369303 121.510334,30.5369303 C121.670462,30.5369303 121.803902,30.5639542 121.910654,30.645026 C122.017406,30.7260978 122.124158,30.8341935 122.23091,31.0233611 L123.912252,33.6717066 C123.191677,34.2121852 122.391037,34.6175442 121.510334,34.8877836 C120.576255,35.0499272 119.642176,35.1850468 118.681409,35.1850468 Z M97.0641524,18.1599688 C97.4110961,17.8356816 97.7847277,17.5113944 98.1583593,17.2141311 C98.5319909,16.9168678 98.9589984,16.6736524 99.386006,16.4844849 C99.8130135,16.2953174 100.293397,16.1331738 100.800468,16.025078 C101.30754,15.9169823 101.867987,15.8629344 102.455123,15.8629344 C103.469266,15.8629344 104.349969,16.052102 105.150608,16.4034131 C105.924559,16.7547242 106.591758,17.241155 107.125518,17.8897294 C107.659277,18.5383039 108.059597,19.2679501 108.353164,20.1597399 C108.620044,21.0245057 108.753484,21.9703434 108.753484,22.9972529 L108.753484,34.9148075 L103.229074,34.9148075 L103.229074,22.9702289 C103.229074,22.0514152 103.01557,21.3487929 102.615251,20.8353382 C102.188243,20.3218835 101.57442,20.0786681 100.77378,20.0786681 C100.159957,20.0786681 99.5995097,20.2137877 99.0657503,20.4570031 C98.5319909,20.7272425 98.0249194,21.0785536 97.517848,21.5109365 L97.517848,34.8877836 L91.9934379,34.8877836 L91.9934379,16.1331738 L95.4094982,16.1331738 C96.1033855,16.1331738 96.557081,16.457461 96.7705848,17.0790114 L97.0641524,18.1599688 Z M79.7436589,15.8629344 C81.1581214,15.8629344 82.439144,16.0791259 83.5867268,16.5385328 C84.7343096,16.9979396 85.7217645,17.6194901 86.5490917,18.457232 C87.3764188,19.294974 88.0169301,20.2948595 88.4706256,21.4839126 C88.9243211,22.6729657 89.1645129,23.9971384 89.1645129,25.4834547 C89.1645129,26.9697711 88.9243211,28.3209677 88.4706256,29.5370447 C88.0169301,30.7260978 87.3764188,31.7530073 86.5490917,32.5907492 C85.7217645,33.4284912 84.7343096,34.0770656 83.5867268,34.5364724 C82.439144,34.9958793 81.1581214,35.2120708 79.7436589,35.2120708 C78.3291964,35.2120708 77.0481738,34.9958793 75.8739031,34.5364724 C74.6996323,34.0770656 73.7121774,33.4284912 72.8848502,32.5907492 C72.0575231,31.7530073 71.3903238,30.7260978 70.9366283,29.5370447 C70.4829328,28.3479917 70.2427411,26.996795 70.2427411,25.4834547 C70.2427411,23.9971384 70.4829328,22.6729657 70.9366283,21.4839126 C71.3903238,20.2948595 72.0308352,19.294974 72.8848502,18.457232 C73.7121774,17.6194901 74.7263203,16.9979396 75.8739031,16.5385328 C77.0214858,16.0791259 78.3291964,15.8629344 79.7436589,15.8629344 Z M79.7436589,31.0233611 C81.0246816,31.0233611 81.9587606,30.5639542 82.5458959,29.6451405 C83.1597193,28.7263267 83.453287,27.3481061 83.453287,25.4834547 C83.453287,23.6188033 83.1597193,22.2405827 82.5458959,21.3487929 C81.9320726,20.4570031 80.9979936,19.9975963 79.7436589,19.9975963 C78.4359483,19.9975963 77.4751813,20.4570031 76.861358,21.3487929 C76.2475347,22.2405827 75.953967,23.6458273 75.953967,25.4834547 C75.953967,27.3481061 76.2475347,28.7263267 76.861358,29.6451405 C77.4751813,30.5639542 78.4359483,31.0233611 79.7436589,31.0233611 Z M67.7607597,20.5921228 C67.6006319,20.8083143 67.440504,20.9704579 67.2803762,21.0785536 C67.1202484,21.1866493 66.9067446,21.2677211 66.6131769,21.2677211 C66.3462972,21.2677211 66.0794175,21.2136733 65.8659137,21.0785536 C65.65241,20.9434339 65.3855302,20.8083143 65.1186505,20.6461707 C64.8517708,20.4840271 64.5315152,20.3489074 64.1578836,20.2137877 C63.7842519,20.0786681 63.3305564,20.0246202 62.770109,20.0246202 C62.1029097,20.0246202 61.5157744,20.1597399 61.0087029,20.4029553 C60.5016315,20.6461707 60.1013119,21.0245057 59.7810562,21.4839126 C59.4608006,21.9433195 59.2206088,22.537846 59.060481,23.2134443 C58.9003532,23.8890427 58.8202892,24.6727367 58.8202892,25.5104787 C58.8202892,27.2940583 59.1672329,28.6993028 59.8344322,29.6451405 C60.5283194,30.6180021 61.4623984,31.1044329 62.6633571,31.1044329 C63.3038685,31.1044329 63.8109399,31.0233611 64.1845715,30.8612175 C64.5582031,30.6990739 64.8784588,30.5099063 65.1453385,30.3207388 C65.4122182,30.1315713 65.65241,29.9424037 65.8659137,29.7802601 C66.0794175,29.6181165 66.3729852,29.5370447 66.6932408,29.5370447 C67.1202484,29.5370447 67.467192,29.6991883 67.6806958,30.0234755 L69.2819741,32.0232466 C68.7215267,32.698845 68.1077033,33.2393236 67.467192,33.6446826 C66.8266807,34.0500416 66.1861694,34.3743288 65.5189701,34.6175442 C64.8517708,34.8607596 64.1845715,35.0229032 63.5173722,35.103975 C62.8501729,35.1850468 62.2096616,35.2390947 61.5691503,35.2390947 C60.4482555,35.2390947 59.3540487,35.0229032 58.3399058,34.5905203 C57.2990749,34.1581374 56.3916838,33.5365869 55.6177327,32.698845 C54.8437815,31.861103 54.2299581,30.8612175 53.7495747,29.6451405 C53.2958791,28.4290635 53.0556874,27.0778668 53.0556874,25.5104787 C53.0556874,24.159282 53.2425032,22.8891571 53.6428228,21.727128 C54.0431423,20.5650989 54.6302777,19.5381894 55.4042289,18.6734235 C56.1781801,17.8086576 57.138947,17.1330593 58.2865298,16.6466285 C59.4341126,16.1601977 60.7685112,15.9169823 62.2897255,15.9169823 C63.730876,15.9169823 65.0118986,16.1601977 66.1061055,16.6196046 C67.2003123,17.0790114 68.1877673,17.7816337 69.0684703,18.6734235 L67.7607597,20.5921228 Z" id="Control-Wordmark" fill="#233C53"></path>
                            <path d="M39.6285662,11.2409675 C40.4295691,11.7215693 41.0968708,12.8682682 41.069167,13.8029724 L41.069167,34.5110061 C41.069167,35.4457103 40.4295691,36.5924093 39.6285662,37.073011 L21.9896384,47.4535272 C21.1886355,47.934129 19.8805315,47.934129 19.080733,47.4535272 L17.4124788,46.4694379 C16.7849261,46.0984471 16.5729314,45.2902171 16.9378996,44.6590508 L19.6841954,39.908441 C20.1467294,39.1086425 21.1802039,38.0751681 21.9800023,37.612634 L21.9896384,37.6066115 L31.2487505,32.1622006 C32.0232541,31.7093027 32.6905558,30.5348999 32.6905558,29.6014002 L32.6905558,18.7125784 C32.6905558,17.7790787 32.0497535,16.6311752 31.2487505,16.151778 L21.9896384,10.7073671 C21.1886355,10.2267653 19.8805315,10.2267653 19.080733,10.7073671 L9.82041642,16.151778 C9.04591283,16.6311752 8.37981565,17.7790787 8.37981565,18.7125784 L8.37981565,29.6543989 C8.37981565,29.6845118 8.37981565,29.7146247 8.38102017,29.7459421 C8.44726853,31.1997925 8.21961507,32.6524384 7.49088308,33.9111573 L5.23482519,37.8077656 C4.86503887,38.4473634 4.04476369,38.6617672 3.4087794,38.2871628 L1.44060077,37.1260097 C0.667301692,36.6466125 0,35.498709 0,34.5640048 L0,13.8294718 C0,12.8682682 0.640802347,11.7215693 1.44060077,11.2409675 L19.080733,0.86045132 C19.8805315,0.37984956 21.1886355,0.37984956 21.9896384,0.86045132 L39.6285662,11.2409675 Z M22.664096,26.8064919 C23.4682903,27.2801012 23.7434682,28.3449575 23.2983585,29.1763883 L11.8220008,49.3050909 C11.5331235,49.8412408 10.9762896,50.1400177 10.3892218,50.145141 C10.0968909,50.1476921 9.80265271,50.0695531 9.53538996,49.9116763 L4.49734926,46.9405791 C3.694358,46.4669593 3.41797715,45.4021135 3.89098719,44.59694 L15.3673449,24.4682373 C15.6550192,23.9320979 16.2130561,23.6333105 16.7989209,23.6281978 C17.0924548,23.6256361 17.38549,23.7037857 17.6539558,23.861652 L22.664096,26.8064919 Z" id="Control-Icon" fill="#3A98F3"></path>
                        </g>
                    </g>
                </g>
            </g>
        </g>
    </g>
</svg>
